<?xml version="1.0" encoding="UTF-8" standalone="no"?>
<svg
   version="1.1"
   id="Layer_1"
   x="0px"
   y="0px"
   width="100%"
   viewBox="0 0 931 930"
   enable-background="new 0 0 931 930"
   xml:space="preserve"
   sodipodi:docname="logo_wave.svg"
   inkscape:version="1.2.2 (b0a8486541, 2022-12-01)"
   xmlns:inkscape="http://www.inkscape.org/namespaces/inkscape"
   xmlns:sodipodi="http://sodipodi.sourceforge.net/DTD/sodipodi-0.dtd"
   xmlns:xlink="http://www.w3.org/1999/xlink"
   xmlns="http://www.w3.org/2000/svg"
   xmlns:svg="http://www.w3.org/2000/svg"><defs
   id="defs533"><linearGradient
     inkscape:collect="always"
     id="linearGradient4686"><stop
       style="stop-color:#4589ff;stop-opacity:1;"
       offset="0"
       id="stop4682" /><stop
       style="stop-color:#e4ffff;stop-opacity:1;"
       offset="0.50226706"
       id="stop4684" /></linearGradient><linearGradient
     inkscape:collect="always"
     xlink:href="#linearGradient4686"
     id="linearGradient4688"
     x1="0.97198486"
     y1="696.23697"
     x2="930.02802"
     y2="696.23697"
     gradientUnits="userSpaceOnUse"
     gradientTransform="translate(-930.97199,1.5270392)" /><filter
     style="color-interpolation-filters:sRGB;"
     inkscape:label="Drop Shadow"
     id="filter2832"
     x="-0.031356781"
     y="-0.11551409"
     width="1.0752913"
     height="1.2763193"><feFlood
       flood-opacity="0.611765"
       flood-color="rgb(0,0,0)"
       result="flood"
       id="feFlood2822" /><feComposite
       in="flood"
       in2="SourceGraphic"
       operator="in"
       result="composite1"
       id="feComposite2824" /><feGaussianBlur
       in="composite1"
       stdDeviation="6.80075"
       result="blur"
       id="feGaussianBlur2826" /><feOffset
       dx="9.40151"
       dy="9.1898"
       result="offset"
       id="feOffset2828" /><feComposite
       in="SourceGraphic"
       in2="offset"
       operator="over"
       result="composite2"
       id="feComposite2830" /></filter></defs><sodipodi:namedview
   id="namedview531"
   pagecolor="#ffffff"
   bordercolor="#000000"
   borderopacity="0.25"
   inkscape:showpageshadow="2"
   inkscape:pageopacity="0.0"
   inkscape:pagecheckerboard="0"
   inkscape:deskcolor="#d1d1d1"
   showgrid="false"
   inkscape:zoom="0.42533401"
   inkscape:cx="648.90179"
   inkscape:cy="540.75149"
   inkscape:window-width="1366"
   inkscape:window-height="700"
   inkscape:window-x="0"
   inkscape:window-y="0"
   inkscape:window-maximized="1"
   inkscape:current-layer="Layer_1" />



<circle
   style="fill:#e4ffff;stroke:#000000;stroke-width:3;stroke-opacity:0.98660439;stroke-dasharray:none;fill-opacity:1"
   id="path1158"
   cx="465.5"
   cy="465"
   r="464.52802" /><path
   style="fill:url(#linearGradient4688);fill-opacity:1;stroke:none;stroke-width:3;stroke-dasharray:none;stroke-opacity:0.986604"
   id="path1158-3-6"
   sodipodi:type="arc"
   sodipodi:cx="-465.47198"
   sodipodi:cy="465.5"
   sodipodi:rx="464.52802"
   sodipodi:ry="464.52802"
   sodipodi:start="1.5707963"
   sodipodi:end="4.712389"
   sodipodi:arc-type="slice"
   d="M -465.47198,930.02802 A 464.52802,464.52802 0 0 1 -867.76504,697.76401 464.52802,464.52802 0 0 1 -867.76505,233.23599 464.52802,464.52802 0 0 1 -465.47198,0.97198486 V 465.5 Z"
   transform="rotate(-90)" /><path
   fill="#12A8E0"
   opacity="1.000000"
   stroke="none"
   d=" M870.077881,698.087341   C866.945007,703.660156 863.812134,709.232910 860.078613,714.574341   C840.856079,705.524048 822.254700,696.661133 803.570312,687.976685   C802.199158,687.339355 799.830017,687.362488 798.598022,688.142212   C786.268127,695.944946 774.079468,703.970825 761.506653,711.989929   C756.457520,714.411438 751.814941,716.911987 747.034668,719.113525   C737.623901,723.447632 728.136780,727.615723 718.296265,731.865967   C709.944397,734.230225 701.977356,736.581055 693.644165,738.946411   C692.169434,739.303406 691.060852,739.645874 689.977844,739.998535   C690.003418,740.008789 690.012756,739.954468 689.644409,739.950806   C688.166443,740.289673 687.056885,740.632263 685.973267,740.988159   C685.999268,741.001465 686.005310,740.943420 685.616882,740.936890   C683.801819,741.280273 682.375183,741.630188 680.974854,741.992310   C681.001160,742.004639 681.009949,741.947266 680.569397,741.943848   C676.066650,742.624634 672.004517,743.308899 667.496399,743.979858   C659.627136,744.639099 652.205322,745.851196 644.780090,745.872620   C628.820557,745.918701 612.780396,746.226929 596.919983,744.798767   C579.646240,743.243408 562.467224,740.234253 545.383911,737.109741   C534.151672,735.055359 523.161987,731.674683 511.801208,728.645264   C500.233643,724.073242 488.891052,719.838806 477.636780,715.381226   C470.100250,712.396240 462.689117,709.094482 454.974854,705.678467   C438.866119,697.226379 423.004425,689.030334 406.927795,680.605896   C405.505524,679.570251 404.298157,678.762878 402.921387,677.707275   C402.203674,677.258850 401.655365,677.058716 401.115112,676.838989   C401.123199,676.819397 401.153442,676.787659 401.137268,676.494019   C401.065796,675.812744 401.010529,675.425171 400.982025,675.012634   C401.008789,674.987732 401.057861,674.933533 401.439209,674.918457   C413.652832,679.280640 425.364380,684.026550 437.344757,687.951904   C457.009521,694.395081 477.354919,696.916748 497.987274,698.272888   C520.516113,699.753601 542.746277,698.276367 564.901794,694.478760   C583.526978,691.286316 600.276917,683.341614 616.646179,674.252319   C650.276123,655.578796 682.487488,634.676636 713.860718,612.490540   C737.531372,595.751465 761.604126,579.827881 788.340210,568.265137   C806.902832,560.237183 824.943237,559.885010 842.778870,570.350464   C855.716553,577.941895 864.675537,587.717651 861.960815,608.295349   C861.389099,612.629456 859.327332,616.766907 857.668335,621.165588   C854.413513,624.016602 851.960083,627.651062 847.079712,626.456543   C847.014160,619.953735 848.074158,613.472351 840.532288,610.050293   C832.524902,605.537476 823.287415,606.786072 816.666626,613.012695   C809.455322,618.424988 807.241333,626.061035 807.109863,634.156128   C806.777405,654.615906 817.073120,669.787170 832.341370,682.109985   C843.358643,691.001770 856.626831,694.817688 870.077881,698.087341  z"
   id="path8" />
<path
   fill="#6ecaf3"
   opacity="1"
   stroke="none"
   d="m 72.293533,714.00653 c -4.432136,-7.4068 -8.864269,-14.81354 -12.948177,-22.5567 20.695293,4.76337 41.486564,6.59399 62.337844,7.39502 11.26086,0.43256 22.6028,-0.1004 33.85731,-0.90698 18.48288,-1.32471 37.01476,-2.55744 55.36293,-5.03595 30.2152,-4.08161 59.25165,-13.01941 87.70606,-23.78504 15.06802,-5.70099 29.97372,-11.83301 44.92132,-17.84851 3.3617,-1.3529 5.79682,-1.18121 8.92038,1.43848 25.22037,21.1513 51.58246,40.6792 80.63083,56.4331 32.11472,17.41687 65.1889,32.21411 100.98798,40.45673 31.28906,7.20422 62.85949,11.69574 95.01513,11.37164 8.95997,-0.0903 17.91407,-0.68487 26.87458,-0.87085 1.04175,-0.0216 3.93078,-1.56451 2.65295,2.11469 -3.70856,1.03949 -7.09741,1.92187 -10.84509,2.80151 -1.18775,0.34082 -2.0166,0.68451 -3.03455,1.03748 -0.18915,0.009 -0.56653,-0.0216 -0.93048,-0.0303 -1.20453,0.336 -2.0451,0.68067 -3.07037,1.03498 -0.18463,0.01 -0.55316,-0.0226 -0.98267,-0.0347 -1.56805,0.16485 -2.70941,0.32507 -3.84466,0.52124 -22.10779,3.82165 -44.18048,7.86548 -66.33918,11.36432 -8.78668,1.38733 -17.75946,2.10205 -26.65576,2.1806 -16.68658,0.14728 -33.3927,-0.0742 -50.06351,-0.78253 -8.03418,-0.34143 -16.00656,-2.13764 -24.41818,-3.26618 -1.87448,-0.21514 -3.41818,-0.21203 -4.78879,-0.69757 -17.89883,-6.34021 -35.77313,-12.74963 -53.79305,-19.43249 -0.72407,-0.48547 -1.30869,-0.67999 -1.88013,-0.89447 0.0131,-0.02 0.0207,0.0271 -0.17926,-0.24549 -1.07245,-0.43231 -1.94501,-0.59198 -2.80097,-0.76123 0.0166,-0.01 0.0111,0.0284 -0.15027,-0.229 -0.72964,-0.42309 -1.29794,-0.58881 -1.84903,-0.76563 0.0172,-0.011 0.001,0.0269 -0.15759,-0.29968 -1.72433,-0.78283 -3.28995,-1.23919 -4.84128,-1.70544 0.0143,-0.01 0.007,0.0243 -0.15216,-0.23371 -0.72659,-0.42248 -1.29376,-0.58697 -1.84762,-0.76263 0.0133,-0.0112 0.001,0.0216 -0.1561,-0.23694 -0.72357,-0.42132 -1.28976,-0.5841 -1.84265,-0.75909 0.0133,-0.0123 -0.008,0.0203 -0.14932,-0.29682 -2.71552,-1.43762 -5.28919,-2.55804 -7.85141,-3.6972 0.0114,-0.0187 -0.012,0.0139 -0.20832,-0.25946 -1.06439,-0.42761 -1.93246,-0.58185 -2.78979,-0.7489 0.0107,-0.0128 -0.005,0.0179 -0.1608,-0.2406 -0.72012,-0.41992 -1.28436,-0.5813 -1.83975,-0.75745 0.009,-0.0148 -0.0115,0.0169 -0.15125,-0.29895 -8.35058,-4.39331 -16.48849,-8.63202 -24.83682,-12.40509 -1.57233,-0.71063 -3.98331,0.43445 -6.00558,0.70319 0.002,-0.02 0.0369,-8e-4 -0.33533,-0.004 -1.48969,0.33545 -2.60706,0.6745 -3.92835,1.02197 -0.20388,0.008 -0.61132,-0.0157 -1.0567,-0.0221 -5.52258,1.00549 -10.59973,2.01733 -15.67712,3.00793 -2.5e-4,-0.0212 0.0355,0.002 -0.35553,-0.006 -1.80884,0.33642 -3.22666,0.68091 -4.64472,1.00512 -2.7e-4,-0.0202 0.034,0.001 -0.4024,-0.007 -3.03201,0.32574 -5.65613,0.51526 -8.21787,1.02069 -8.56343,1.72668 -17.65982,3.61806 -24.75299,4.98004 -6.27975,1.1295 -12.58743,2.07083 -19.02645,2.9978 -6.67515,1.15375 -12.58088,1.96353 -19.02173,1.99823 -14.52654,-9.1e-4 -28.57927,0.001 -43.09108,0.0136 -9.47989,-0.68847 -18.50072,-1.38696 -27.60573,-2.45923 -29.01005,-2.18925 -55.46586,-11.83831 -79.88976,-19.55627 -9.268941,-3.6515 -21.495883,-8.37305 -29.696987,-11.99762 z"
   id="path10"
   sodipodi:nodetypes="ccssssscsssscccccccssscccccccccccccccccccccscccccccccccccccc" />
<text
   xml:space="preserve"
   style="font-size:268.393px;font-family:sans-serif;-inkscape-font-specification:sans-serif;fill:#0047f6;fill-opacity:1;stroke:none;stroke-width:14.2332;stroke-dasharray:none;stroke-opacity:0.986604;filter:url(#filter2832)"
   x="65.460152"
   y="441.63464"
   id="text7080"><tspan
     sodipodi:role="line"
     id="tspan7078"
     x="65.460152"
     y="441.63464"
     style="font-style:normal;font-variant:normal;font-weight:bold;font-stretch:normal;font-size:268.393px;font-family:'Prima Sans';-inkscape-font-specification:'Prima Sans Bold';fill:#0047f6;fill-opacity:1;stroke:#0047f6;stroke-width:14.2332;stroke-dasharray:none;stroke-opacity:1">EMRG</tspan></text><path
   fill="#12A8E0"
   opacity="1.000000"
   stroke="none"
   d=" M194.085144,486.933929   C192.592422,485.692596 191.099716,484.451263 189.113113,482.844543   C181.340256,479.076752 174.066956,477.374542 166.816589,482.551849   C166.103271,482.996033 165.389938,483.440216 164.142303,484.131866   C159.339447,487.951782 158.479523,492.824554 157.898880,498.029663   C157.653458,500.229645 155.853760,502.256226 154.760529,504.361633   C153.917038,503.457184 153.073532,502.552765 152.113266,500.968384   C150.981567,496.111633 149.275070,491.967316 149.077148,487.752136   C148.393097,473.183411 162.659317,455.728149 178.556900,452.150421   C201.544296,446.977173 223.681442,449.592957 243.679626,462.597748   C257.620880,471.663727 269.821930,482.860901 276.040558,498.875092   C283.812866,518.890442 282.855774,539.672668 279.191528,560.219666   C277.436676,570.060059 273.163605,579.451355 269.803284,589.218872   C269.394104,589.931274 269.212708,590.470886 268.713409,591.138794   C267.285431,593.528809 266.175385,595.790588 265.038513,598.026123   C265.011749,598.000000 265.057892,598.052673 264.738464,598.163940   C263.619629,599.856628 262.820251,601.437988 262.010437,603.009644   C262.000000,603.000000 262.020844,603.016418 261.711731,603.124634   C260.955200,604.171448 260.507812,605.110046 260.034973,606.024353   C260.009491,606.000000 260.053406,606.049194 259.741089,606.146423   C258.957611,607.171509 258.486450,608.099426 257.808105,609.158325   C257.366669,609.530334 257.211426,609.814514 256.818909,610.224976   C256.017975,611.222839 255.533356,612.137573 254.763306,613.220093   C251.361832,617.316711 248.245789,621.245667 244.855621,625.272095   C244.349289,625.883789 244.117065,626.398132 243.911011,626.961914   C243.937210,627.011353 243.903748,626.907715 243.676910,627.010864   C243.173401,627.327148 243.002106,627.605103 242.931000,627.982788   C242.925812,628.017517 242.989594,628.046753 242.766693,628.126343   C242.263947,628.395630 242.104263,628.658325 242.029938,628.994629   C241.995148,628.995300 241.995026,629.064880 241.772720,629.140991   C241.268829,629.401855 241.109421,629.661560 241.034744,629.996826   C240.997299,629.997375 240.997314,630.072266 240.776428,630.147461   C240.278519,630.409424 240.122986,630.669067 240.045349,631.001587   C240.001740,631.001648 240.002609,631.088867 239.781982,631.160889   C239.282120,631.414551 239.125015,631.671082 239.051819,632.005493   C239.013596,632.008606 239.023987,632.084595 238.715698,632.203064   C230.254883,638.951599 222.102356,645.581665 213.740448,652.265076   C213.272507,652.475891 213.095200,652.698242 212.741608,653.069214   C212.231201,653.406799 211.978302,653.660461 211.386688,653.971924   C198.730576,659.752319 186.413193,665.474976 173.733551,671.269165   C158.721893,676.830261 143.399445,678.381042 127.936874,678.962646   C120.789948,679.231506 113.627174,679.320251 106.476730,679.195496   C96.724365,679.025391 86.916748,679.128723 77.244896,678.080627   C68.222931,677.102905 59.347496,674.772949 50.407555,673.038330   C48.341923,669.891785 45.723179,666.975037 44.304474,663.559814   C37.418201,646.982239 30.853613,630.271118 24.589050,613.265503   C35.847595,614.253479 46.659691,616.219177 57.543800,616.775146   C77.517082,617.795471 97.360573,615.957581 116.733154,610.804871   C143.349548,603.725464 167.718033,592.511719 185.804260,570.718506   C201.514191,551.788574 207.863647,530.046936 203.739929,505.721436   C202.725418,499.736938 201.390381,493.263031 195.846832,489.133392   C195.846832,489.133392 195.972290,489.020172 195.945038,488.748352   C195.306900,487.962311 194.696014,487.448120 194.085144,486.933929  z"
   id="path12" />
<path
   fill="#6ECAF3"
   opacity="1.000000"
   stroke="none"
   d=" M852.104614,727.061462   C844.814941,737.127930 837.980347,747.566956 830.120850,757.166870   C820.186218,769.301453 809.452942,780.784851 798.967163,792.462097   C797.453430,794.147827 795.399353,795.348267 792.956543,796.921265   C792.046326,797.540161 791.774902,798.011108 791.503479,798.482056   C791.503479,798.482056 791.393188,798.428040 791.002930,798.317139   C784.392639,799.782043 778.172668,801.357849 771.716797,802.675781   C768.941589,802.971680 766.402161,803.525513 763.715759,804.095093   C763.568726,804.110718 763.278320,804.055115 762.838379,804.035522   C759.597351,804.692810 756.796204,805.369690 753.996338,806.020996   C753.997498,805.995544 754.043152,806.018372 753.597168,806.011475   C744.397217,807.181885 735.628723,808.264282 726.897827,809.593506   C724.231323,809.999573 721.668030,811.084473 718.616577,811.899902   C706.512390,812.956787 694.865295,814.269470 683.181396,814.908630   C670.136169,815.622192 657.057373,815.724426 643.525513,816.072144   C634.696960,816.027344 626.336121,816.003052 617.677368,815.695068   C597.641174,814.522156 578.156433,811.867188 558.628540,806.981323   C556.981750,806.397705 555.691772,805.860107 552.926514,804.707642   C556.236633,803.899963 558.060547,803.276978 559.933838,803.031189   C565.509460,802.299683 571.116211,801.804077 576.690002,801.060364   C605.529541,797.212036 633.706726,790.280640 661.497070,781.903809   C696.422119,771.376465 728.688354,754.989014 759.683350,735.924072   C773.411499,727.479980 787.330994,719.333313 801.357544,711.394287   C807.634399,707.841553 814.266357,707.888794 820.905090,711.364563   C831.217529,716.763855 841.696289,721.845337 852.104614,727.061462  z"
   id="path14" />




<path
   fill="#6FCAF3"
   opacity="1.000000"
   stroke="none"
   d=" M21.639233,598.210205   C17.224751,595.496826 17.297926,590.519531 16.308504,586.419617   C12.573395,570.941895 9.278326,555.353821 6.071310,539.755188   C4.998165,534.535522 4.680789,529.160400 4.375119,523.600403   C6.197630,524.431274 7.624661,525.574829 9.134284,526.596191   C23.290213,536.174194 36.822182,546.906555 51.773289,555.023438   C75.172409,567.726685 100.545410,573.258667 127.504143,571.184021   C144.281494,569.893005 159.788925,565.768799 173.774017,556.233459   C175.590744,554.994812 178.075577,554.735962 180.194977,554.382935   C179.289734,556.448608 178.440430,558.154480 177.268707,559.927979   C166.631287,569.410950 155.309448,577.396484 142.594238,583.977051   C128.556305,588.615967 115.131386,594.238831 101.158783,597.551880   C78.890869,602.831787 56.219379,603.808228 33.532024,599.195374   C29.661020,598.408325 25.608112,598.515869 21.639233,598.210205  z"
   id="path24" />
<path
   fill="#9CD8F1"
   opacity="1.000000"
   stroke="none"
   d=" M658.932434,762.055115   C659.890503,758.532959 657.001465,760.075867 655.959717,760.097473   C646.999207,760.283447 638.045105,760.878052 629.085144,760.968323   C596.929504,761.292419 565.359070,756.800903 534.070007,749.596680   C498.270935,741.354065 465.196747,726.556824 433.082031,709.139954   C404.033661,693.386047 377.671570,673.858154 352.451202,652.706848   C349.327637,650.087158 346.892517,649.915466 343.530823,651.268372   C328.583221,657.283875 313.677521,663.415894 298.609497,669.116882   C270.155090,679.882507 241.118637,688.820312 210.903442,692.901917   C192.555267,695.380432 174.023392,696.613159 155.540512,697.937866   C144.285995,698.744446 132.944061,699.277405 121.683197,698.844849   C100.831917,698.043823 80.040649,696.213196 59.292313,691.087402   C57.962990,689.587769 57.034927,688.114319 56.366371,686.329712   C58.103256,686.180054 59.586166,686.302124 61.057163,686.508911   C78.743912,688.994751 96.372231,692.919189 114.128777,693.624695   C135.984894,694.493042 157.951141,692.782104 179.862976,691.995544   C197.803314,691.351624 215.484711,688.712646 232.771439,683.838318   C243.595947,680.786133 254.301147,677.310852 265.463135,674.021240   C266.842834,673.873352 267.872803,673.882935 268.787689,673.563232   C284.530243,668.061340 300.258606,662.518921 316.333557,656.842163   C325.441010,653.312073 334.235565,650.001221 342.954803,646.502808   C346.760284,644.975891 349.953583,644.665222 353.404907,647.734680   C358.688843,652.434021 364.438782,656.609436 370.187927,661.273865   C371.415009,662.351379 372.411407,663.209839 373.480499,663.965454   C382.954224,670.661560 392.440887,677.339355 402.099426,684.315063   C406.965576,687.695984 411.528717,691.002808 416.374634,693.824036   C424.787872,698.722168 433.375885,703.320129 442.110199,708.306091   C454.769928,714.725891 467.120636,721.074707 479.691498,726.952759   C485.180603,729.519470 491.120361,731.122437 497.112518,733.412720   C509.753845,737.348572 522.036621,741.431213 534.544250,744.636047   C558.353516,750.736511 582.625671,754.421875 607.139832,755.837830   C630.571594,757.191345 653.921387,755.636414 677.031433,751.211731   C680.123230,750.619629 683.279480,750.364136 686.405884,749.952820   C686.599487,750.569946 686.793152,751.187073 686.986755,751.804199   C682.637207,753.822388 678.287598,755.840576 673.554443,757.904785   C668.424744,759.318848 663.678589,760.686951 658.932434,762.055115  z"
   id="path26" />

<path
   fill="#9FDAF2"
   opacity="1.000000"
   stroke="none"
   d=" M180.250916,554.023254   C178.075577,554.735962 175.590744,554.994812 173.774017,556.233459   C159.788925,565.768799 144.281494,569.893005 127.504143,571.184021   C100.545410,573.258667 75.172409,567.726685 51.773289,555.023438   C36.822182,546.906555 23.290213,536.174194 9.134284,526.596191   C7.624661,525.574829 6.197630,524.431274 4.449532,523.177856   C3.904914,521.629822 3.306622,520.209961 3.458893,518.875793   C3.696008,516.798279 4.442918,514.778870 5.072614,512.347046   C7.295267,511.539917 9.450437,510.641571 11.537863,510.778229   C26.242847,511.740692 40.925781,513.505432 55.633739,513.707947   C60.874905,513.780151 66.228600,510.383087 71.412506,508.277985   C74.947243,506.842621 78.341553,505.017700 81.679138,503.153046   C84.929848,501.336914 86.871376,502.124115 89.159340,505.100311   C94.608147,512.188354 100.556747,518.892212 106.765335,526.200806   C113.115379,530.155762 118.602928,534.994690 124.969574,536.907532   C141.608597,541.906311 158.234589,541.079163 174.083359,533.015076   C175.829590,532.126587 177.785873,531.366882 179.706894,531.177185   C182.149780,530.935974 183.560318,532.153625 182.428833,534.863586   C181.990921,535.912354 181.445694,536.916443 180.671234,538.089478   C179.230316,539.121033 178.067520,540.003845 176.915451,540.517517   C177.112457,535.110779 173.816544,537.801636 172.380020,538.470947   C162.170410,543.227722 151.451126,544.740601 140.343491,543.974548   C123.474335,542.810974 109.224396,536.475464 98.804649,522.673767   C94.348480,516.771301 89.818245,510.924713 85.138840,504.813965   C80.296097,507.385590 75.720924,509.717407 71.239311,512.216980   C63.751656,516.393188 56.058102,519.896301 47.200150,518.963806   C37.016685,517.891785 26.861176,516.556335 16.684875,515.412231   C14.884678,515.209839 13.042199,515.383484 10.351912,515.383484   C12.336539,518.471436 13.719151,520.622742 14.922937,522.905762   C14.658709,523.153931 14.476920,523.336304 14.503881,523.375671   C14.655250,523.596558 14.856939,523.782959 15.026205,523.994385   C15.010951,524.007629 15.020572,523.969238 15.116735,524.199829   C15.412978,524.718750 15.684415,524.900574 16.011606,524.981628   C15.996002,524.987366 16.023548,524.962036 16.152988,525.274231   C19.249901,528.224304 21.975986,531.213623 25.223518,533.443726   C48.614609,549.506287 72.660042,563.632996 102.238724,565.298889   C116.724571,566.114685 131.117462,566.461609 145.244385,563.665588   C152.453949,562.238647 159.105194,557.990662 166.319077,554.880554   C172.384598,549.820374 178.139816,544.897461 184.118271,539.703125   C185.841141,538.561279 187.340775,537.690857 189.477036,536.450928   C189.728867,538.517395 189.880249,539.759460 189.766129,541.220276   C186.417389,545.633728 183.334152,549.828491 180.250916,554.023254  z"
   id="path30" />
<path
   fill="#9BD8F1"
   opacity="1.000000"
   stroke="none"
   d=" M558.986206,808.190002   C550.936646,806.357361 542.885071,804.532898 534.848755,802.643921   C534.653381,802.598083 534.626526,801.835205 534.759277,801.184326   C545.678162,799.659485 556.340454,798.175964 567.043091,797.091248   C592.026733,794.559265 616.497925,789.512085 641.275757,782.332397   C661.989685,776.844849 681.476624,770.063843 700.551636,761.088135   C713.495300,755.008423 726.149414,749.110168 738.603882,742.816772   C743.396179,740.395203 747.734070,737.074341 752.621094,734.124268   C755.809326,732.468079 758.728271,730.965393 761.487671,729.211731   C769.374390,724.199768 777.196411,719.085938 785.418518,714.008423   C791.935425,711.119141 798.306458,708.627136 804.151428,705.230042   C809.319458,702.226318 813.514160,702.395447 818.833252,705.180115   C830.451416,711.262512 842.507446,716.508423 854.384644,722.096069   C853.833191,723.654602 853.281677,725.213074 852.417358,726.916504   C841.696289,721.845337 831.217529,716.763855 820.905090,711.364563   C814.266357,707.888794 807.634399,707.841553 801.357544,711.394287   C787.330994,719.333313 773.411499,727.479980 759.683350,735.924072   C728.688354,754.989014 696.422119,771.376465 661.497070,781.903809   C633.706726,790.280640 605.529541,797.212036 576.690002,801.060364   C571.116211,801.804077 565.509460,802.299683 559.933838,803.031189   C558.060547,803.276978 556.236633,803.899963 552.926514,804.707642   C555.691772,805.860107 556.981750,806.397705 558.630371,807.271851   C558.988159,807.802246 558.987183,807.996094 558.986206,808.190002  z"
   id="path32" />
<path
   fill="#6DCAF2"
   opacity="1.000000"
   stroke="none"
   d=" M195.841263,489.505646   C201.390381,493.263031 202.725418,499.736938 203.739929,505.721436   C207.863647,530.046936 201.514191,551.788574 185.804260,570.718506   C167.718033,592.511719 143.349548,603.725464 116.733154,610.804871   C97.360573,615.957581 77.517082,617.795471 57.543800,616.775146   C46.659691,616.219177 35.847595,614.253479 24.587498,612.884277   C23.776968,611.495605 23.381954,610.146301 23.203205,608.147705   C31.091286,608.315918 38.748581,609.636414 46.437580,609.858337   C71.503632,610.581848 96.494164,610.162354 120.985146,603.550293   C140.660873,598.238159 159.027374,590.174805 174.018585,576.235535   C193.631485,557.998779 203.643814,535.299927 201.847626,508.166107   C201.595123,504.351715 199.429657,500.663940 198.149658,496.917572   C197.378326,494.571014 196.607010,492.224457 195.841263,489.505646  z"
   id="path34" />




<path
   fill="#9ED9F2"
   opacity="1.000000"
   stroke="none"
   d=" M198.092346,497.349976   C199.429657,500.663940 201.595123,504.351715 201.847626,508.166107   C203.643814,535.299927 193.631485,557.998779 174.018585,576.235535   C159.027374,590.174805 140.660873,598.238159 120.985146,603.550293   C96.494164,610.162354 71.503632,610.581848 46.437580,609.858337   C38.748581,609.636414 31.091286,608.315918 23.157017,607.782959   C22.421703,606.098206 21.948847,604.128967 22.215340,602.282837   C30.826450,603.270630 38.680737,604.584839 46.574181,604.891602   C57.627048,605.321167 68.741989,605.534058 79.769646,604.854431   C91.453201,604.134216 103.177406,602.862244 114.678825,600.726990   C127.042435,598.431519 139.213470,594.978271 150.366516,587.980469   C157.805466,583.132141 165.199799,578.721741 171.861282,573.394958   C176.144562,569.969910 179.350098,565.197021 183.330566,560.860352   C187.124268,554.152649 190.626129,547.612732 194.382690,540.805420   C195.780258,535.369202 196.923111,530.200439 198.065979,525.031616   C198.224228,517.077271 198.404953,509.123260 198.515259,501.168274   C198.530884,500.042084 198.203598,498.911163 198.092346,497.349976  z"
   id="path44" />


<path
   fill="#6DCAF2"
   opacity="1.000000"
   stroke="none"
   d=" M870.389404,697.935791   C856.626831,694.817688 843.358643,691.001770 832.341370,682.109985   C817.073120,669.787170 806.777405,654.615906 807.109863,634.156128   C807.241333,626.061035 809.455322,618.424988 816.645386,613.369690   C815.298523,617.103577 813.627563,620.517700 811.684204,624.204956   C811.126770,629.691589 809.589539,635.209229 810.769470,640.066833   C816.398804,663.241699 831.521912,678.393982 853.277527,687.113586   C859.647095,689.666504 866.456970,691.120850 873.065063,693.078857   C872.277100,694.647339 871.489014,696.215820 870.389404,697.935791  z"
   id="path50" />

<path
   fill="#6ECAF2"
   opacity="1.000000"
   stroke="none"
   d=" M175.063568,763.946167   C168.358597,763.960083 161.653641,763.973999 154.333771,763.678833   C146.823105,760.737488 140.043472,757.729553 133.006607,755.553589   C119.712509,751.442749 106.270531,747.810242 92.890015,743.978882   C91.308395,741.873291 89.726784,739.767700 88.410004,737.339355   C116.705467,744.486938 144.739746,751.943542 172.757950,759.460144   C174.505096,759.928833 176.126434,760.866638 178.257385,761.779358   C176.663986,762.860413 175.863770,763.403320 175.063568,763.946167  z"
   id="path54" />
<path
   fill="#1499D0"
   opacity="1.000000"
   stroke="none"
   d=" M93.024834,744.302856   C106.270531,747.810242 119.712509,751.442749 133.006607,755.553589   C140.043472,757.729553 146.823105,760.737488 153.866058,763.683655   C140.290512,762.715027 126.569145,761.417358 112.843346,760.168457   C111.043480,760.004700 109.220848,760.091187 106.927345,760.121460   C102.017166,754.996277 97.588409,749.811462 93.024834,744.302856  z"
   id="path56" />
<path
   fill="#9BD8F1"
   opacity="1.000000"
   stroke="none"
   d=" M175.520767,763.958130   C175.863770,763.403320 176.663986,762.860413 178.257385,761.779358   C176.126434,760.866638 174.505096,759.928833 172.757950,759.460144   C144.739746,751.943542 116.705467,744.486938 88.274857,737.021423   C86.607101,735.268311 85.339340,733.510376 84.144394,731.408569   C95.194046,734.740417 106.170883,738.416138 117.816467,742.355713   C133.125931,746.079468 147.796448,749.419250 162.396988,753.040955   C172.307571,755.499329 182.119980,758.353394 191.976288,761.030396   C189.762253,762.002075 187.625702,763.453430 185.314972,763.826782   C182.274307,764.318115 179.096695,763.961792 175.520767,763.958130  z"
   id="path58" />

<path
   fill="#1499D0"
   opacity="1.000000"
   stroke="none"
   d=" M877.496887,683.256836   C868.013733,679.794861 858.795532,676.445984 849.612366,673.004089   C848.109253,672.440613 846.760010,671.466614 845.655884,670.347778   C859.260071,669.663940 872.547913,669.314697 885.835815,668.965454   C883.148438,673.756592 880.460999,678.547729 877.496887,683.256836  z"
   id="path62" />

<path
   fill="#9BD8F1"
   opacity="1.000000"
   stroke="none"
   d=" M829.635437,666.978271   C840.846619,679.286804 855.004028,685.467163 870.594788,689.004822   C871.712280,689.258423 872.810059,689.598694 874.286255,689.954102   C874.321655,690.950378 873.987854,691.891174 873.359558,692.955383   C866.456970,691.120850 859.647095,689.666504 853.277527,687.113586   C831.521912,678.393982 816.398804,663.241699 810.769470,640.066833   C809.589539,635.209229 811.126770,629.691589 811.699585,624.675842   C812.328003,629.584839 812.668762,634.296082 813.009583,639.007324   C815.144226,650.235596 820.984741,659.302795 829.635437,666.978271  z"
   id="path66" />





<path
   fill="#4C9DE7"
   opacity="1.000000"
   stroke="none"
   d=" M791.739380,798.357788   C791.774902,798.011108 792.046326,797.540161 792.636536,797.046143   C792.628601,797.426514 792.301941,797.829956 791.739380,798.357788  z"
   id="path78" />




<path
   fill="#9ED9F1"
   opacity="1.000000"
   stroke="none"
   d=" M497.806519,422.943176   C514.785645,423.963318 530.261780,428.290863 544.889282,437.483307   C549.233582,440.518768 553.051758,443.162750 557.073730,446.082092   C559.835144,448.590851 562.392822,450.824310 564.950500,453.057800   C575.998169,464.898743 585.647705,477.688080 590.616333,493.336029   C592.297607,498.630951 593.164917,504.231293 593.925110,509.757965   C594.621338,514.820190 594.671509,519.971375 595.000977,526.005249   C594.634033,536.622192 594.272461,546.317322 593.650879,556.258911   C590.676331,568.184998 585.525513,578.672852 577.691650,588.142212   C569.188354,595.609009 560.973755,602.918030 552.796997,610.269165   C552.359558,610.662476 552.240540,611.410034 551.602966,611.999268   C545.068787,614.055969 539.984192,619.177368 532.059509,618.894958   C534.744751,615.845642 536.876038,613.425415 539.303467,610.854980   C547.679016,603.917297 554.132874,595.921326 558.030090,585.599976   C559.384521,576.807495 560.687073,568.401001 561.996216,559.547180   C562.388306,550.641663 563.742371,542.104370 559.914673,533.630188   C553.398865,517.097290 542.827148,504.024567 530.059448,492.311218   C512.679993,476.367126 492.324066,468.953430 468.748901,468.685333   C467.341370,468.320679 466.178314,468.205505 464.614166,468.064911   C463.142822,468.054535 462.072601,468.069580 460.660553,468.066956   C459.237457,468.344727 458.156189,468.640106 456.602783,468.928833   C447.106842,469.967438 438.083038,471.012665 428.684845,472.045380   C426.508179,472.678436 424.705841,473.324036 422.545227,473.970337   C421.106232,474.297974 420.025574,474.624939 418.564545,474.955475   C416.788055,475.278046 415.391937,475.597015 413.593903,475.940979   C411.267365,476.424194 409.304138,476.760986 407.423920,477.358856   C374.896637,487.701599 351.499512,509.968170 330.672607,536.125916   C322.588013,546.193726 314.801147,556.105713 306.743958,566.209839   C303.761688,569.920959 301.049774,573.439880 298.337860,576.958801   C297.933136,576.739990 297.528442,576.521118 297.123718,576.302246   C298.413940,572.200256 299.704132,568.098206 301.255371,563.766968   C306.975922,553.344788 312.435455,543.151855 318.057007,532.654175   C324.893311,522.434082 331.260254,512.293945 338.310181,502.653290   C350.398499,486.122803 363.544312,470.443115 380.289734,458.353882   C389.158020,451.951447 398.588013,446.327087 407.764435,440.351501   C417.532471,436.695709 427.242767,432.873444 437.093719,429.456818   C441.775909,427.832886 446.726227,426.982086 452.246704,425.522095   C453.949249,425.140411 454.960144,425.017609 456.293732,424.916443   C457.421021,424.650543 458.225586,424.362946 459.361237,424.075623   C460.133606,424.054749 460.574921,424.033630 461.387115,424.013367   C462.499451,423.995697 463.240936,423.977142 464.320770,423.969788   C465.110077,423.963928 465.561035,423.946808 466.343872,423.938660   C467.450195,423.645081 468.224609,423.342560 469.400330,423.040680   C470.871643,423.009918 471.941620,422.978516 473.011627,422.947144   C481.113525,422.948700 489.215393,422.950226 497.806519,422.943176  z"
   id="path88" />
<path
   fill="#9ED9F2"
   opacity="1.000000"
   stroke="none"
   d=" M904.003479,579.583984   C905.382263,590.189026 905.161499,600.291016 902.055298,610.604187   C899.564575,615.959717 897.121948,620.924377 894.377441,625.580811   C902.186157,610.732117 902.661621,594.708923 900.542908,579.119507   C896.940613,552.614807 880.686523,534.477966 857.770691,521.913086   C836.216614,510.094818 813.069153,511.060608 790.282227,515.706238   C767.571472,520.336304 745.245117,526.962097 722.905090,533.262024   C707.977539,537.471497 693.198914,540.845581 677.423950,540.227234   C656.968018,539.425354 636.455139,540.173706 615.970886,539.922058   C611.390808,539.865784 609.653015,541.306396 608.897827,545.774414   C603.477051,577.846069 588.246643,603.595947 559.877075,620.707397   C545.476929,629.393066 530.150024,635.659424 513.262329,636.865601   C498.952911,637.887634 485.614410,634.369324 473.596741,626.195435   C472.140198,625.204712 469.894165,625.374756 467.671936,624.952393   C464.888367,621.265137 462.446869,617.632324 459.956268,613.615417   C459.143219,609.750305 458.379272,606.269287 457.615326,602.788269   C458.192261,602.580627 458.769196,602.372986 459.346130,602.165344   C462.228760,605.779297 465.111420,609.393250 468.032990,613.350708   C475.282104,624.050598 485.356201,628.623779 497.769653,630.322144   C521.270752,633.537659 542.062073,627.726257 561.301453,613.851074   C571.009277,606.808044 580.227783,599.715332 587.143921,589.692261   C595.434448,579.619568 600.364990,568.343506 603.026245,555.581421   C603.724060,551.949646 604.728760,548.734131 604.929932,545.469177   C605.558228,535.270447 609.302673,532.562866 619.501831,534.253235   C627.634583,535.601074 635.929871,536.968201 644.117065,536.777893   C660.986877,536.385620 677.896057,535.544250 694.663818,533.730347   C704.248047,532.693481 713.585999,529.379883 723.034851,527.091492   C735.725830,523.884460 748.387390,520.555237 761.114502,517.498657   C780.931274,512.739441 800.703918,507.891479 821.339172,507.902771   C841.888428,507.914062 859.572693,515.128052 875.713989,527.842773   C882.486206,536.197754 888.955994,544.403198 895.686035,552.821777   C898.627136,561.750366 901.308105,570.465881 904.003479,579.583984  z"
   id="path90" />




<path
   fill="#6DCAF2"
   opacity="1.000000"
   stroke="none"
   d=" M270.031036,589.046082   C273.163605,579.451355 277.436676,570.060059 279.191528,560.219666   C282.855774,539.672668 283.812866,518.890442 276.040558,498.875092   C269.821930,482.860901 257.620880,471.663727 243.679626,462.597748   C223.681442,449.592957 201.544296,446.977173 178.556900,452.150421   C162.659317,455.728149 148.393097,473.183411 149.077148,487.752136   C149.275070,491.967316 150.981567,496.111633 151.952118,500.685120   C150.200211,498.074402 148.492676,495.066986 146.840454,491.251465   C146.608368,488.151886 145.881104,485.816681 146.103577,483.575806   C147.778687,466.702606 156.557617,454.755005 172.089798,448.196747   C187.026245,441.890015 202.648712,443.018585 218.130600,445.633148   C232.940292,448.134155 245.683456,455.232910 256.643707,465.299438   C267.511505,475.281097 276.567047,486.648499 281.151154,501.034546   C285.940460,516.064697 285.681610,531.403748 284.241516,546.848328   C283.895660,550.557251 283.869751,554.296021 283.731873,558.357300   C283.420441,559.768677 283.073822,560.843872 282.435211,562.005493   C281.803833,562.771057 281.464447,563.450256 281.103333,564.513062   C278.022125,572.884399 274.962585,580.871948 271.591431,588.899902   C270.863525,588.975464 270.447296,589.010742 270.031036,589.046082  z"
   id="path100" />


<path
   fill="#91CBF3"
   opacity="1.000000"
   stroke="none"
   d=" M283.696686,558.021057   C283.869751,554.296021 283.895660,550.557251 284.241516,546.848328   C285.681610,531.403748 285.940460,516.064697 281.151154,501.034546   C276.567047,486.648499 267.511505,475.281097 256.643707,465.299438   C245.683456,455.232910 232.940292,448.134155 218.130600,445.633148   C202.648712,443.018585 187.026245,441.890015 172.089798,448.196747   C156.557617,454.755005 147.778687,466.702606 146.103577,483.575806   C145.881104,485.816681 146.608368,488.151886 146.821838,490.883575   C145.838684,488.819183 144.929474,486.314575 144.021698,483.030090   C144.018051,481.485718 144.012955,480.721222 144.018646,479.552765   C144.020920,478.060486 144.012421,476.972198 144.158875,475.568298   C144.845810,473.456055 145.377777,471.659332 145.956482,469.533081   C146.757385,467.636841 147.511551,466.070160 148.265717,464.503479   C161.050537,443.556488 180.844177,438.304474 203.640030,439.774811   C204.800613,439.849670 205.961456,439.920258 207.918091,440.148743   C212.472351,440.883148 216.230667,441.461548 220.308838,442.186646   C222.417236,442.893402 224.205795,443.453400 225.994370,444.013397   C233.509018,447.626129 241.023682,451.238831 248.895233,454.930664   C253.296036,458.162720 257.339966,461.315643 261.783447,464.955139   C264.114563,467.619049 266.046112,469.796478 268.115906,472.274750   C269.788788,474.368683 271.323425,476.161743 272.926849,478.295959   C274.270081,480.466400 275.544495,482.295715 276.895142,484.476288   C279.311005,490.669983 282.635742,496.328522 283.768036,502.396210   C285.642944,512.443298 286.105774,522.753967 287.101807,533.421143   C285.925598,541.932861 284.811157,549.976990 283.696686,558.021057  z"
   id="path106" />





<path
   fill="#7DCFF2"
   opacity="1.000000"
   stroke="none"
   d=" M154.886597,504.674652   C155.853760,502.256226 157.653458,500.229645 157.898880,498.029663   C158.479523,492.824554 159.339447,487.951782 163.964630,484.391968   C162.046280,491.459167 162.413086,497.961761 167.845413,503.681610   C170.116699,506.073090 168.980133,507.914703 166.104279,508.729218   C161.592361,510.007172 158.093903,508.064148 154.886597,504.674652  z"
   id="path118" />




<path
   fill="#6DCAF3"
   opacity="1.000000"
   stroke="none"
   d=" M400.955261,675.037537   C401.010529,675.425171 401.065796,675.812744 400.791595,676.441650   C392.642120,671.451050 384.822083,666.219299 376.976593,660.691162   C376.631378,659.927002 376.311646,659.459290 375.994751,658.996948   C375.997559,659.002441 376.007874,659.008240 375.874664,658.727661   C374.831818,657.624756 373.922150,656.802429 373.007996,655.991455   C373.003540,656.002808 373.024780,655.987000 373.074768,655.664795   C374.523804,655.446533 376.089478,655.175049 377.296753,655.711060   C394.003906,663.127747 410.562317,670.887268 427.358307,678.093933   C446.141418,686.153198 465.495880,691.125000 486.349182,690.206116   C506.131775,689.334473 525.982849,689.928101 545.803040,690.027161   C563.071838,690.113464 579.294189,685.928162 594.814026,678.602173   C622.842407,665.371643 649.406982,649.551392 675.150513,632.394775   C698.630615,616.746460 721.463562,600.124512 744.997742,584.560730   C761.369568,573.733582 778.809021,564.790466 797.704590,558.883545   C815.070007,553.455139 831.194092,555.949280 846.167053,565.828613   C856.754456,572.814331 864.008972,582.458618 867.032471,595.448608   C866.681641,600.274597 866.340820,604.639709 865.844849,609.322144   C863.110413,613.424561 860.531189,617.209717 857.952026,620.994934   C859.327332,616.766907 861.389099,612.629456 861.960815,608.295349   C864.675537,587.717651 855.716553,577.941895 842.778870,570.350464   C824.943237,559.885010 806.902832,560.237183 788.340210,568.265137   C761.604126,579.827881 737.531372,595.751465 713.860718,612.490540   C682.487488,634.676636 650.276123,655.578796 616.646179,674.252319   C600.276917,683.341614 583.526978,691.286316 564.901794,694.478760   C542.746277,698.276367 520.516113,699.753601 497.987274,698.272888   C477.354919,696.916748 457.009521,694.395081 437.344757,687.951904   C425.364380,684.026550 413.652832,679.280640 401.385040,674.751343   C400.827423,674.557922 400.705292,674.516357 400.583160,674.474854   C400.707214,674.662415 400.831238,674.849976 400.955261,675.037537  z"
   id="path128" />






<path
   fill="#6DCAF2"
   opacity="1.000000"
   stroke="none"
   d=" M847.079712,626.456543   C843.425232,627.583557 841.695862,626.487061 841.879700,622.287170   C842.042419,618.568726 841.272522,614.809448 840.870605,610.666260   C848.074158,613.472351 847.014160,619.953735 847.079712,626.456543  z"
   id="path142" />
<path
   fill="#6DC9F2"
   opacity="1.000000"
   stroke="none"
   d=" M680.569397,741.943848   C676.954590,742.626770 672.899170,743.306335 668.393066,743.989502   C672.004517,743.308899 676.066650,742.624634 680.569397,741.943848  z"
   id="path144" />
<path
   fill="#6DC9F2"
   opacity="1.000000"
   stroke="none"
   d=" M685.616882,740.936890   C684.581482,741.290955 683.157715,741.638550 681.341187,741.983093   C682.375183,741.630188 683.801819,741.280273 685.616882,740.936890  z"
   id="path146" />
<path
   fill="#6DC9F2"
   opacity="1.000000"
   stroke="none"
   d=" M689.644409,739.950806   C688.906067,740.296509 687.799316,740.638550 686.319946,740.977722   C687.056885,740.632263 688.166443,740.289673 689.644409,739.950806  z"
   id="path148" />
<path
   fill="#6DC9F2"
   opacity="1.000000"
   stroke="none"
   d=" M693.644165,738.946411   C692.906311,739.282654 691.802368,739.633484 690.325317,739.986328   C691.060852,739.645874 692.169434,739.303406 693.644165,738.946411  z"
   id="path150" />
<path
   fill="#6DCAF3"
   opacity="1.000000"
   stroke="none"
   d=" M402.921387,677.707275   C402.518951,677.776245 401.947113,677.596924 401.241150,677.138062   C401.655365,677.058716 402.203674,677.258850 402.921387,677.707275  z"
   id="path152" />


<path
   fill="#8CD0EE"
   opacity="1.000000"
   stroke="none"
   d=" M639.749512,767.021118   C633.388245,768.969727 626.683228,771.321045 619.786865,772.746765   C609.115723,774.952820 598.313965,776.526672 587.270508,778.614502   C568.165710,780.517151 549.384521,782.898315 530.541382,783.588745   C516.852173,784.090332 503.059509,782.619812 489.355743,781.503601   C482.790833,780.968933 476.325073,779.217590 469.407806,778.008667   C469.001221,778.000000 468.938873,777.511841 468.889160,777.270752   C476.839844,778.167114 484.812225,779.963318 492.846405,780.304749   C509.517212,781.013062 526.223328,781.234558 542.909912,781.087280   C551.806213,781.008728 560.778992,780.294006 569.565674,778.906677   C591.724365,775.407837 613.797058,771.364014 635.904846,767.542358   C637.040100,767.346191 638.181458,767.185974 639.749512,767.021118  z"
   id="path158" />

<path
   fill="#8CD0EE"
   opacity="1.000000"
   stroke="none"
   d=" M380.838684,743.715820   C373.427124,740.735046 365.908203,737.360657 358.305298,734.187622   C355.923126,733.193481 353.314667,732.741516 350.402161,732.037659   C352.018555,731.745178 354.429535,730.600098 356.001862,731.310730   C364.350189,735.083801 372.488098,739.322510 380.838684,743.715820  z"
   id="path162" />

<path
   fill="#8CD0EE"
   opacity="1.000000"
   stroke="none"
   d=" M323.596130,737.009277   C313.316315,739.029175 302.600128,741.040771 291.441528,743.044800   C299.123749,741.359192 307.239349,739.635620 315.378265,738.029968   C317.940002,737.524536 320.564117,737.335022 323.596130,737.009277  z"
   id="path166" />
<path
   fill="#8CD0EE"
   opacity="1.000000"
   stroke="none"
   d=" M344.675903,733.009399   C340.040894,734.027771 334.960480,735.039795 329.439545,736.045166   C334.076172,735.026733 339.153320,734.014893 344.675903,733.009399  z"
   id="path168" />
<path
   fill="#8CD0EE"
   opacity="1.000000"
   stroke="none"
   d=" M284.590210,744.008667   C280.983398,744.689941 276.933716,745.365051 272.438721,746.035828   C276.044739,745.355225 280.096008,744.678894 284.590210,744.008667  z"
   id="path170" />
<path
   fill="#8CD0EE"
   opacity="1.000000"
   stroke="none"
   d=" M393.839996,749.718384   C391.410248,748.911926 388.838684,747.788452 386.122131,746.352417   C388.550812,747.160339 391.124481,748.280762 393.839996,749.718384  z"
   id="path172" />


<path
   fill="#8CD0EE"
   opacity="1.000000"
   stroke="none"
   d=" M271.598816,746.007812   C269.638458,746.350037 267.245636,746.689758 264.422577,747.024170   C266.383667,746.681030 268.774994,746.343140 271.598816,746.007812  z"
   id="path178" />
<path
   fill="#8CD0EE"
   opacity="1.000000"
   stroke="none"
   d=" M402.829132,753.713013   C401.459167,753.546448 399.930481,753.053345 398.187683,752.288818   C399.539185,752.473816 401.104797,752.930176 402.829132,753.713013  z"
   id="path180" />
<path
   fill="#8CD0EE"
   opacity="1.000000"
   stroke="none"
   d=" M290.625275,743.010010   C289.290527,743.361755 287.548370,743.705139 285.401123,744.041992   C286.736664,743.690857 288.477264,743.346252 290.625275,743.010010  z"
   id="path182" />
<path
   fill="#8CD0EE"
   opacity="1.000000"
   stroke="none"
   d=" M328.643250,736.010986   C327.614777,736.363281 326.195282,736.707458 324.387268,737.044067   C325.416595,736.691895 326.834412,736.347412 328.643250,736.010986  z"
   id="path184" />

<path
   fill="#8CD0EE"
   opacity="1.000000"
   stroke="none"
   d=" M349.660950,732.009521   C348.917267,732.350464 347.801300,732.687866 346.310913,733.024170   C347.053894,732.684021 348.171265,732.344971 349.660950,732.009521  z"
   id="path188" />
<path
   fill="#8CD0EE"
   opacity="1.000000"
   stroke="none"
   d=" M407.786987,755.768555   C407.123199,755.871765 406.259521,755.702332 405.182617,755.274902   C405.841980,755.176575 406.714539,755.336243 407.786987,755.768555  z"
   id="path190" />
<path
   fill="#8CD0EE"
   opacity="1.000000"
   stroke="none"
   d=" M647.767578,765.013672   C647.294678,765.353699 646.463013,765.690918 645.276733,766.035034   C645.750977,765.698181 646.579834,765.354492 647.767578,765.013672  z"
   id="path192" />
<path
   fill="#8CD0EE"
   opacity="1.000000"
   stroke="none"
   d=" M385.780273,745.761658   C385.114014,745.874878 384.251373,745.714783 383.184235,745.290161   C383.847809,745.179871 384.715881,745.334106 385.780273,745.761658  z"
   id="path194" />
<path
   fill="#8CD0EE"
   opacity="1.000000"
   stroke="none"
   d=" M643.802551,766.020813   C643.322449,766.364197 642.478394,766.698853 641.275635,767.039795   C641.757446,766.701477 642.598022,766.356812 643.802551,766.020813  z"
   id="path196" />








<path
   fill="#8CD0EE"
   opacity="1.000000"
   stroke="none"
   d=" M382.829681,744.772217   C382.424377,744.865295 381.863220,744.699768 381.141541,744.281860   C381.545319,744.190918 382.109558,744.352295 382.829681,744.772217  z"
   id="path214" />


<path
   fill="#8CD0EE"
   opacity="1.000000"
   stroke="none"
   d=" M395.831970,750.774231   C395.428009,750.864441 394.866608,750.696106 394.140625,750.277588   C394.542206,750.190186 395.108398,750.352966 395.831970,750.774231  z"
   id="path220" />

<path
   fill="#8CD0EE"
   opacity="1.000000"
   stroke="none"
   d=" M397.835693,751.773865   C397.435333,751.859192 396.875549,751.686462 396.145264,751.268066   C396.541931,751.186890 397.109100,751.351379 397.835693,751.773865  z"
   id="path224" />
<path
   fill="#8CD0EE"
   opacity="1.000000"
   stroke="none"
   d=" M404.835754,754.778320   C404.432800,754.865051 403.868469,754.694397 403.136841,754.273804   C403.537811,754.189514 404.106110,754.355225 404.835754,754.778320  z"
   id="path226" />

<path
   fill="#8CD0EE"
   opacity="1.000000"
   stroke="none"
   d=" M408.322998,757.057251   C407.973511,756.889893 407.958252,756.719055 407.947998,756.291077   C408.537689,756.228516 409.122314,756.423035 409.846375,756.908508   C409.542938,757.150879 409.100098,757.102417 408.322998,757.057251  z"
   id="path230" />







<path
   fill="#6DCAF2"
   opacity="1.000000"
   stroke="none"
   d=" M268.713409,591.138794   C267.937073,593.317749 266.842834,595.625061 265.406982,597.992310   C266.175385,595.790588 267.285431,593.528809 268.713409,591.138794  z"
   id="path246" />
<path
   fill="#6DCAF2"
   opacity="1.000000"
   stroke="none"
   d=" M264.738464,598.163940   C264.277344,599.677429 263.496765,601.302124 262.368561,602.973145   C262.820251,601.437988 263.619629,599.856628 264.738464,598.163940  z"
   id="path248" />
<path
   fill="#6DCAF2"
   opacity="1.000000"
   stroke="none"
   d=" M256.935364,612.618530   C256.488007,612.997253 256.077332,613.021912 255.357697,613.049438   C255.533356,612.137573 256.017975,611.222839 256.818909,610.224976   C257.080841,610.849365 257.026459,611.556946 256.935364,612.618530  z"
   id="path250" />
<path
   fill="#6DCAF2"
   opacity="1.000000"
   stroke="none"
   d=" M259.741058,606.146423   C259.602783,607.011414 259.152161,607.973633 258.358398,608.981567   C258.486450,608.099426 258.957611,607.171509 259.741058,606.146423  z"
   id="path252" />
<path
   fill="#6DCAF2"
   opacity="1.000000"
   stroke="none"
   d=" M261.711731,603.124634   C261.594177,603.990662 261.167480,604.964844 260.400635,605.993896   C260.507812,605.110046 260.955200,604.171448 261.711731,603.124634  z"
   id="path254" />
<path
   fill="#6DCAF2"
   opacity="1.000000"
   stroke="none"
   d=" M244.855637,625.272095   C244.893951,625.682068 244.658142,626.189514 244.153580,626.804688   C244.117065,626.398132 244.349289,625.883789 244.855637,625.272095  z"
   id="path256" />
<path
   fill="#94DADD"
   opacity="1.000000"
   stroke="none"
   d=" M239.781982,631.160889   C239.899261,631.376343 239.725342,631.611572 239.285461,631.898560   C239.125015,631.671082 239.282120,631.414551 239.781982,631.160889  z"
   id="path258" />
<path
   fill="#94DADD"
   opacity="1.000000"
   stroke="none"
   d=" M240.776428,630.147461   C240.899750,630.364929 240.728012,630.604431 240.285522,630.896057   C240.122986,630.669067 240.278519,630.409424 240.776428,630.147461  z"
   id="path260" />
<path
   fill="#94DADD"
   opacity="1.000000"
   stroke="none"
   d=" M241.772720,629.140991   C241.898071,629.361938 241.724213,629.603638 241.272812,629.893188   C241.109421,629.661560 241.268829,629.401855 241.772720,629.140991  z"
   id="path262" />
<path
   fill="#94DADD"
   opacity="1.000000"
   stroke="none"
   d=" M242.766693,628.126343   C242.897919,628.350098 242.725082,628.596558 242.267914,628.890015   C242.104263,628.658325 242.263947,628.395630 242.766693,628.126343  z"
   id="path264" />
<path
   fill="#6DCAF2"
   opacity="1.000000"
   stroke="none"
   d=" M243.676880,627.010864   C243.740524,627.195251 243.577316,627.482788 243.175140,627.859192   C243.002106,627.605103 243.173401,627.327148 243.676880,627.010864  z"
   id="path266" />
<path
   fill="#8BD6D7"
   opacity="1.000000"
   stroke="none"
   d=" M213.740448,652.265076   C213.829987,652.477051 213.644363,652.683105 213.196045,652.907593   C213.095200,652.698242 213.272507,652.475891 213.740448,652.265076  z"
   id="path268" />
<path
   fill="#8CD0EE"
   opacity="1.000000"
   stroke="none"
   d=" M559.254517,808.432983   C558.987183,807.996094 558.988159,807.802246 558.987244,807.317871   C578.156433,811.867188 597.641174,814.522156 617.677368,815.695068   C615.944336,816.009033 613.913269,816.039246 611.448547,816.113098   C593.511963,815.995972 576.446167,812.826599 559.254517,808.432983  z"
   id="path270" />
<path
   fill="#8CD0EE"
   opacity="1.000000"
   stroke="none"
   d=" M753.597168,806.011475   C747.352783,807.348267 740.682861,808.795898 733.964905,809.967590   C729.298401,810.781494 724.565674,811.215759 719.459961,811.838989   C721.668030,811.084473 724.231323,809.999573 726.897827,809.593506   C735.628723,808.264282 744.397217,807.181885 753.597168,806.011475  z"
   id="path272" />
<path
   fill="#8CD0EE"
   opacity="1.000000"
   stroke="none"
   d=" M762.838379,804.035522   C760.463745,804.719849 757.649109,805.384583 754.414795,806.047913   C756.796204,805.369690 759.597351,804.692810 762.838379,804.035522  z"
   id="path274" />
<path
   fill="#8CD0EE"
   opacity="1.000000"
   stroke="none"
   d=" M771.716797,802.675781   C769.543457,803.314880 767.134216,803.695984 764.293884,804.078247   C766.402161,803.525513 768.941589,802.971680 771.716797,802.675781  z"
   id="path276" />




<path
   fill="#6DC9F2"
   opacity="1.000000"
   stroke="none"
   d=" M236.025757,669.023621   C234.825150,669.500061 233.624542,669.976501 232.200272,670.698486   C229.272522,671.278870 226.568451,671.613708 223.450455,671.593811   C225.312210,668.514465 227.246201,665.382751 229.922974,663.135925   C241.223938,653.650269 253.488190,645.189758 264.014801,634.932617   C280.089447,619.269531 293.716125,601.500732 305.626068,582.314392   C318.633514,561.360046 334.588043,542.684265 353.150909,526.284668   C368.226349,512.966125 384.585388,501.586212 403.288025,494.174622   C432.322937,482.668427 462.081268,482.714233 492.286560,489.507507   C525.799194,497.044617 546.574768,525.680908 548.093079,557.491089   C548.152405,558.733887 549.203491,559.929321 549.818970,561.481201   C549.829773,562.490479 549.814026,563.165527 549.458008,563.978882   C548.817444,565.780823 548.517090,567.444275 548.182007,569.533081   C547.368591,574.955139 546.589966,579.951965 545.566895,585.183411   C544.465515,587.382263 543.868835,589.519226 542.701538,591.277344   C539.597168,595.953003 536.246887,600.465332 533.012085,604.682617   C536.363342,597.121948 540.419434,590.156128 542.854492,582.663513   C546.188293,572.405762 545.804504,561.630249 543.942993,551.059692   C540.269409,530.198242 530.375000,513.209229 511.431122,502.775604   C487.309906,489.490509 460.862946,489.422577 434.547333,491.540436   C409.675507,493.542084 388.004059,504.573334 368.178131,519.250061   C345.574554,535.982971 326.834351,556.571045 312.140656,580.332764   C296.405853,605.778198 277.684357,628.459656 255.747406,648.599243   C248.571976,655.186768 240.915161,661.250000 233.115997,667.860229   C234.306015,668.336060 235.165894,668.679810 236.025757,669.023621  z"
   id="path286" />
<path
   fill="#9ED9F2"
   opacity="1.000000"
   stroke="none"
   d=" M549.792480,561.146851   C549.203491,559.929321 548.152405,558.733887 548.093079,557.491089   C546.574768,525.680908 525.799194,497.044617 492.286560,489.507507   C462.081268,482.714233 432.322937,482.668427 403.288025,494.174622   C384.585388,501.586212 368.226349,512.966125 353.150909,526.284668   C334.588043,542.684265 318.633514,561.360046 305.626068,582.314392   C293.716125,601.500732 280.089447,619.269531 264.014801,634.932617   C253.488190,645.189758 241.223938,653.650269 229.922974,663.135925   C227.246201,665.382751 225.312210,668.514465 223.047119,671.599670   C221.001022,671.968567 218.944351,671.976868 216.449860,671.967896   C218.197281,669.048767 220.079819,665.836243 222.651352,663.330872   C225.320084,660.730835 228.655823,658.815369 231.862518,656.303040   C239.917297,649.872192 247.809464,643.738831 255.852203,637.307983   C257.478851,636.029968 259.159332,635.256409 260.396851,634.034241   C266.894104,627.617371 273.279297,621.086975 279.850494,614.298035   C285.239441,606.877686 290.481323,599.755432 296.016296,592.011963   C301.200104,583.591370 306.090790,575.792053 311.142090,567.696655   C318.888275,557.960938 326.473877,548.521240 334.348938,538.916260   C343.530060,530.561707 351.913361,521.719116 361.421051,514.321716   C380.304291,499.629578 401.350403,488.979706 425.358032,483.900024   C437.985229,480.514740 450.505371,480.961243 463.417603,481.010193   C470.550781,482.028687 477.323669,482.728027 483.958160,484.097809   C507.277496,488.912231 527.271912,499.049866 539.860657,520.396301   C542.460571,524.804932 544.539734,529.520569 546.890686,534.498291   C547.967896,543.258179 549.013306,551.614563 550.004639,560.267700   C549.897888,560.758606 549.845215,560.952698 549.792480,561.146851  z"
   id="path288" />
<path
   fill="#6ECAF2"
   opacity="1.000000"
   stroke="none"
   d=" M15.101761,522.773987   C13.719151,520.622742 12.336539,518.471436 10.351912,515.383484   C13.042199,515.383484 14.884678,515.209839 16.684875,515.412231   C26.861176,516.556335 37.016685,517.891785 47.200150,518.963806   C56.058102,519.896301 63.751656,516.393188 71.239311,512.216980   C75.720924,509.717407 80.296097,507.385590 85.138840,504.813965   C89.818245,510.924713 94.348480,516.771301 98.804649,522.673767   C109.224396,536.475464 123.474335,542.810974 140.343491,543.974548   C151.451126,544.740601 162.170410,543.227722 172.380020,538.470947   C173.816544,537.801636 177.112457,535.110779 176.728546,540.790466   C172.014099,544.770081 167.497299,548.107544 162.956543,551.315796   C162.932571,551.186584 162.979599,550.927979 162.896301,550.535400   C158.803436,549.776855 154.792587,549.090942 150.784592,549.107300   C140.458710,549.149353 130.250412,548.730469 120.381279,545.197449   C105.838303,539.991333 96.165764,529.134766 88.096336,516.770691   C84.959175,511.963928 82.417496,511.497681 77.894623,514.408325   C66.618950,521.664734 54.219357,524.383362 40.835712,523.155945   C35.891197,522.702454 30.871544,523.029419 25.886957,523.079590   C24.678621,523.091736 23.473438,523.417297 21.949364,523.646484   C22.782909,525.152466 23.330269,526.141357 23.500492,527.132080   C20.756754,526.409851 18.390150,525.685974 16.023548,524.962036   C16.023548,524.962036 15.996002,524.987366 15.976352,524.710571   C15.644659,524.278931 15.332617,524.124084 15.020573,523.969238   C15.020572,523.969238 15.010951,524.007629 15.087669,523.694824   C15.143512,523.179321 15.122636,522.976685 15.101761,522.773987  z"
   id="path290" />
<path
   fill="#C7F1F4"
   opacity="1.000000"
   stroke="none"
   d=" M16.152987,525.274231   C18.390150,525.685974 20.756754,526.409851 23.761324,527.260132   C24.857115,527.744507 25.314941,528.102600 25.884481,528.631714   C26.186474,529.013184 26.421227,529.143494 26.999149,529.361023   C28.303976,530.351807 29.238358,531.287842 30.326967,531.981934   C46.782906,542.474548 64.119202,551.210266 82.995651,556.326721   C110.193192,563.698730 137.083923,564.042175 162.979599,550.927979   C162.979599,550.927979 162.932571,551.186584 163.025513,551.602722   C164.081879,553.018494 165.045334,554.018127 166.008789,555.017761   C159.105194,557.990662 152.453949,562.238647 145.244385,563.665588   C131.117462,566.461609 116.724571,566.114685 102.238724,565.298889   C72.660042,563.632996 48.614609,549.506287 25.223518,533.443726   C21.975986,531.213623 19.249901,528.224304 16.152987,525.274231  z"
   id="path292" />
<path
   fill="#D1F6F6"
   opacity="1.000000"
   stroke="none"
   d=" M166.319077,554.880554   C165.045334,554.018127 164.081879,553.018494 163.049469,551.731934   C167.497299,548.107544 172.014099,544.770081 176.717834,541.159668   C178.067520,540.003845 179.230316,539.121033 180.671234,538.089478   C181.722687,538.601135 182.496017,539.261414 183.582184,539.948120   C178.139816,544.897461 172.384598,549.820374 166.319077,554.880554  z"
   id="path294" />
<path
   fill="#C7F1F4"
   opacity="1.000000"
   stroke="none"
   d=" M14.922936,522.905762   C15.122636,522.976685 15.143512,523.179321 15.102923,523.681519   C14.856939,523.782959 14.655250,523.596558 14.503881,523.375671   C14.476920,523.336304 14.658709,523.153931 14.922936,522.905762  z"
   id="path296" />
<path
   fill="#C7F1F4"
   opacity="1.000000"
   stroke="none"
   d=" M15.116736,524.199829   C15.332617,524.124084 15.644659,524.278931 15.991956,524.704834   C15.684415,524.900574 15.412978,524.718750 15.116736,524.199829  z"
   id="path298" />
<path
   fill="#6ecaf3"
   opacity="1"
   stroke="none"
   d="m 468.01401,625.00684 c 1.88015,0.36792 4.12619,0.19787 5.58273,1.18859 12.01767,8.17389 25.35617,11.6922 39.66559,10.67017 16.88769,-1.20618 32.2146,-7.47253 46.61474,-16.1582 28.36957,-17.11145 43.59998,-42.86133 49.02076,-74.93299 0.75518,-4.46801 2.49298,-5.90863 7.07306,-5.85235 20.48425,0.25165 40.99713,-0.49671 61.45306,0.30517 15.77496,0.61835 30.55359,-2.75573 45.48114,-6.96521 22.34003,-6.29992 44.66638,-12.92572 67.37714,-17.55578 22.78692,-4.64563 45.93438,-5.61142 67.48846,6.20685 22.91583,12.56488 39.16992,30.70172 42.77222,57.20642 2.11871,15.58941 1.64325,31.61261 -6.51056,46.51446 -0.0432,0.36127 -0.0323,0.36518 -0.32068,0.50519 -0.76843,1.04712 -1.24847,1.9541 -1.72852,2.86108 -2.22931,2.45838 -4.45861,4.91669 -7.06011,7.78418 -0.6518,0.60889 -0.84925,0.87061 -0.96454,1.19428 -0.57294,0.49365 -1.14594,0.9873 -1.84339,1.74017 -5.08691,2.55097 -9.90063,5.27356 -15.04181,7.04657 -11.56305,3.98761 -22.85376,3.42407 -33.65143,-3.98846 2.08069,-1.08283 4.40308,-1.9419 6.78394,-2.15839 5.5213,-0.50214 12.11664,1.10803 16.39722,-1.37628 9.70843,-5.6344 17.20233,-14.07257 19.3797,-25.82251 3.34527,-18.05267 -2.14691,-33.72846 -13.6933,-47.4212 -2.74121,-3.2508 -6.78235,-5.4054 -10.44507,-8.17328 -0.48944,-0.31122 -0.67963,-0.57166 -0.84583,-1.2063 -0.71984,-0.73328 -1.38385,-1.15051 -2.22509,-1.87256 -9.0261,-5.36581 -16.31629,-7.11286 -24.23871,-9.53333 -23.68462,-2.0679 -47.67866,7.26109 -67.05603,19.57258 -1.72736,0.57757 -3.23017,0.87713 -4.42163,1.65405 -7.0351,4.58703 -14.02289,9.24798 -20.9715,13.96533 -2.49493,1.69379 -4.83673,3.61316 -7.60632,5.46368 -2.07666,0.9643 -3.90271,1.74054 -5.49555,2.85145 -7.01159,4.89019 -13.94171,9.89715 -20.93194,14.81829 -2.6518,1.86689 -5.38587,3.61701 -8.43152,5.46973 -10.83044,6.07178 -21.24487,12.21466 -31.81543,18.07605 -7.51227,4.16565 -15.23505,7.95166 -23.23163,11.9494 -6.56158,2.43012 -12.71527,4.92877 -18.95703,7.18378 -15.17371,5.48181 -30.69251,9.74963 -46.84314,10.76117 -12.41644,0.77765 -24.89166,1.02551 -37.33093,0.84137 -5.49396,-0.0813 -10.96344,-1.81561 -16.65192,-3.06543 -1.08295,-0.43341 -1.95807,-0.60095 -3.05133,-0.77558 -0.21811,-0.007 -0.65454,-1.8e-4 -0.84296,-0.23925 -0.759,-0.41175 -1.32959,-0.58442 -1.89923,-0.74646 9.2e-4,0.0105 0.0211,0.003 -0.19119,-0.25477 -1.07693,-0.42584 -1.94156,-0.59356 -2.80643,-0.74859 -2.4e-4,0.0126 0.0221,1.8e-4 -0.18728,-0.2771 -7.74027,-4.09686 -15.27115,-7.9165 -22.8082,-11.72473 -0.006,0.0114 0.017,0.001 -0.12878,-0.2937 -1.38282,-1.11335 -2.61991,-1.93158 -4.01093,-3.04248 -3.71921,-4.07679 -7.28452,-7.8609 -10.84982,-11.64508 z"
   id="path300"
   sodipodi:nodetypes="ccsssssssssccccccscssssccccccscsscscsssccccccccccc" />

<path
   fill="#9ED9F2"
   opacity="1.000000"
   stroke="none"
   d=" M892.327881,628.944946   C892.463196,628.093262 892.943237,627.186279 893.709534,626.134766   C893.554749,626.956726 893.113647,627.923157 892.327881,628.944946  z"
   id="path304" />
<path
   fill="#9ED9F2"
   opacity="1.000000"
   stroke="none"
   d=" M884.187317,637.874634   C884.073792,637.655029 884.271240,637.393311 884.772522,637.079834   C884.801514,637.234314 884.608826,637.502441 884.187317,637.874634  z"
   id="path306" />














































































<path
   fill="#91CBF3"
   opacity="1.000000"
   stroke="none"
   d=" M282.435211,562.005493   C282.787415,562.095520 282.847595,562.272095 282.946045,562.725952   C282.547485,563.335815 282.110657,563.668335 281.399445,564.065125   C281.464447,563.450256 281.803833,562.771057 282.435211,562.005493  z"
   id="path464" />
<path
   fill="#9CD9F1"
   opacity="1.000000"
   stroke="none"
   d=" M373.074768,655.664795   C367.523102,655.271301 365.672394,650.829712 362.983215,647.243835   C363.260986,646.734619 363.538727,646.225464 363.816498,645.716309   C366.335144,646.536072 368.975128,647.098755 371.351501,648.220032   C381.810486,653.155151 392.176056,658.288086 402.620972,663.253540   C404.366058,664.083191 406.336121,664.439697 408.651184,665.148621   C409.186218,665.327820 409.272247,665.373230 409.358276,665.418640   C409.244141,665.274902 409.130005,665.131165 409.015869,664.987427   C408.920349,664.378967 408.824829,663.770447 409.282593,663.083618   C416.270782,665.974915 422.705627,668.944580 428.823975,671.937683   C428.367462,672.486450 428.057281,673.453796 428.111420,673.474670   C436.456940,676.686584 444.621613,680.664673 453.242218,682.804443   C471.656158,687.374878 490.583130,688.069336 509.484741,687.946045   C523.754456,687.852966 538.079224,687.957397 552.274536,686.744995   C570.671509,685.173706 587.675598,678.447693 604.306152,669.848877   C619.030884,661.645569 633.462769,653.628784 647.792542,645.433472   C649.489624,644.462891 650.627625,642.514587 652.408813,641.015381   C654.447571,640.384949 656.226562,639.971558 657.733215,639.091919   C662.019714,636.589355 666.297180,634.046021 670.393799,631.248657   C679.658142,624.922607 688.811584,618.434204 698.358032,611.968384   C704.854919,607.736938 711.057190,603.624695 717.135437,599.336609   C721.842041,596.016113 726.393494,592.475647 731.361633,588.982239   C743.145325,581.970825 754.581238,575.010071 766.375488,567.997314   C774.313965,564.557678 781.797668,560.930664 789.493469,557.830322   C807.693909,550.497986 825.897766,550.166687 843.122009,560.277649   C849.696106,564.136780 855.071167,570.038452 861.143433,575.314087   C862.512817,577.392639 863.934204,579.062256 864.909424,580.961060   C867.170898,585.363892 869.538574,589.829590 867.042542,594.987793   C864.008972,582.458618 856.754456,572.814331 846.167053,565.828613   C831.194092,555.949280 815.070007,553.455139 797.704590,558.883545   C778.809021,564.790466 761.369568,573.733582 744.997742,584.560730   C721.463562,600.124512 698.630615,616.746460 675.150513,632.394775   C649.406982,649.551392 622.842407,665.371643 594.814026,678.602173   C579.294189,685.928162 563.071838,690.113464 545.803040,690.027161   C525.982849,689.928101 506.131775,689.334473 486.349182,690.206116   C465.495880,691.125000 446.141418,686.153198 427.358307,678.093933   C410.562317,670.887268 394.003906,663.127747 377.296753,655.711060   C376.089478,655.175049 374.523804,655.446533 373.074768,655.664795  M411.418549,666.484070   C411.418549,666.484070 411.519196,666.426636 411.418549,666.484070  z"
   id="path466" />

<path
   fill="#9CD9F1"
   opacity="1.000000"
   stroke="none"
   d=" M373.389954,658.992676   C373.010254,658.236145 373.004150,657.484497 373.005249,656.356506   C373.922150,656.802429 374.831818,657.624756 375.874664,658.727661   C375.259766,659.004700 374.511688,659.001099 373.389954,658.992676  z"
   id="path470" />
<path
   fill="#9CD9F1"
   opacity="1.000000"
   stroke="none"
   d=" M376.976562,660.691162   C376.678894,660.520813 376.355743,660.054138 376.012268,659.289429   C376.311646,659.459290 376.631378,659.927002 376.976562,660.691162  z"
   id="path472" />
<path
   fill="#12A8E0"
   opacity="1.000000"
   stroke="none"
   d=" M400.982025,675.012634   C400.831238,674.849976 400.707214,674.662415 400.583160,674.474854   C400.705292,674.516357 400.827423,674.557922 401.003723,674.766479   C401.057861,674.933533 401.008789,674.987732 400.982025,675.012634  z"
   id="path474" />
<path
   fill="#1398CF"
   opacity="1.000000"
   stroke="none"
   d=" M429.140472,671.914307   C422.705627,668.944580 416.270782,665.974915 409.483215,662.945312   C392.337982,651.573853 375.446960,640.403809 358.833679,628.834839   C355.402954,626.445679 352.994812,627.800659 350.153168,628.973877   C331.251221,636.777954 312.358887,644.605286 293.213409,652.671753   C279.233948,657.102661 265.530212,661.374084 251.761383,665.424377   C246.865204,666.864746 241.811081,667.768127 236.427399,668.970093   C235.165894,668.679810 234.306015,668.336060 233.115997,667.860229   C240.915161,661.250000 248.571976,655.186768 255.747406,648.599243   C277.684357,628.459656 296.405853,605.778198 312.140656,580.332764   C326.834351,556.571045 345.574554,535.982971 368.178131,519.250061   C388.004059,504.573334 409.675507,493.542084 434.547333,491.540436   C460.862946,489.422577 487.309906,489.490509 511.431122,502.775604   C530.375000,513.209229 540.269409,530.198242 543.942993,551.059692   C545.804504,561.630249 546.188293,572.405762 542.854492,582.663513   C540.419434,590.156128 536.363342,597.121948 533.012085,604.682617   C531.894592,606.411011 530.794861,607.779480 529.534546,609.449036   C520.418518,617.353394 509.562744,619.132080 498.362000,619.965637   C489.601135,620.617737 483.130371,616.390808 477.006592,609.963867   C469.766602,599.062317 472.275177,582.830383 481.881256,581.573853   C481.659271,584.077393 481.611664,586.446167 481.214233,588.754700   C479.990875,595.860840 485.107269,602.533813 492.291870,603.043152   C499.436157,603.549683 505.489258,600.215576 508.219452,594.270203   C511.561462,586.992554 510.041138,576.334900 504.765137,570.773254   C490.591278,554.689758 461.508392,558.758911 451.530365,577.934692   C450.383240,579.422119 449.317291,580.740479 448.813110,582.246887   C442.376312,601.477844 445.577515,619.485779 457.286438,635.575928   C468.701416,651.262085 485.299255,660.212280 502.997406,667.082214   C517.626709,672.760864 532.775452,676.055237 548.582703,676.229492   C551.650818,676.263367 554.700623,677.960144 557.359131,678.934143   C552.365234,679.630066 547.783752,680.721680 543.174561,680.855591   C525.203003,681.377502 507.223389,681.762512 489.245148,681.844971   C482.120789,681.877686 474.867493,681.661194 467.892975,680.369751   C455.512970,678.077454 443.300873,674.878235 430.689819,671.970215   C429.911835,671.893127 429.462616,671.904358 429.045410,671.943115   C429.077454,671.970642 429.140472,671.914307 429.140472,671.914307  z"
   id="path476" />

<path
   fill="#1499D0"
   opacity="1.000000"
   stroke="none"
   d=" M162.896301,550.535400   C137.083923,564.042175 110.193192,563.698730 82.995651,556.326721   C64.119202,551.210266 46.782906,542.474548 30.326967,531.981934   C29.238358,531.287842 28.303976,530.351807 26.967449,529.117920   C26.418585,528.381775 26.130487,528.299500 25.772766,528.460693   C25.314941,528.102600 24.857115,527.744507 24.138458,527.258362   C23.330269,526.141357 22.782909,525.152466 21.949364,523.646484   C23.473438,523.417297 24.678621,523.091736 25.886957,523.079590   C30.871544,523.029419 35.891197,522.702454 40.835712,523.155945   C54.219357,524.383362 66.618950,521.664734 77.894623,514.408325   C82.417496,511.497681 84.959175,511.963928 88.096336,516.770691   C96.165764,529.134766 105.838303,539.991333 120.381279,545.197449   C130.250412,548.730469 140.458710,549.149353 150.784592,549.107300   C154.792587,549.090942 158.803436,549.776855 162.896301,550.535400  z"
   id="path480" />
<path
   fill="#6ECAF2"
   opacity="1.000000"
   stroke="none"
   d=" M25.884480,528.631714   C26.130487,528.299500 26.418585,528.381775 26.668755,528.950562   C26.421227,529.143494 26.186474,529.013184 25.884480,528.631714  z"
   id="path482" />








<path
   fill="#9CD9F1"
   opacity="1.000000"
   stroke="none"
   d=" M850.998535,556.619019   C850.389832,556.518005 849.725220,556.100952 849.005676,555.367554   C849.614685,555.468506 850.278687,555.885742 850.998535,556.619019  z"
   id="path500" />
<path
   fill="#9CD9F1"
   opacity="1.000000"
   stroke="none"
   d=" M827.053955,546.450256   C826.454712,546.430542 825.753113,546.114990 824.951904,545.500854   C825.552124,545.519653 826.251892,545.837036 827.053955,546.450256  z"
   id="path502" />
<path
   fill="#9ED9F2"
   opacity="1.000000"
   stroke="none"
   d=" M508.805450,652.738525   C508.149200,652.833862 507.280640,652.671082 506.205688,652.242798   C506.863892,652.144958 507.728516,652.312683 508.805450,652.738525  z"
   id="path504" />
<path
   fill="#9ED9F2"
   opacity="1.000000"
   stroke="none"
   d=" M514.790161,654.754639   C514.129211,654.848145 513.260315,654.675781 512.174194,654.244751   C512.832092,654.153625 513.707214,654.321167 514.790161,654.754639  z"
   id="path506" />
<path
   fill="#9ED9F2"
   opacity="1.000000"
   stroke="none"
   d=" M510.895874,653.739746   C510.505524,653.814209 509.926727,653.649658 509.171814,653.233887   C509.566284,653.155334 510.136871,653.328003 510.895874,653.739746  z"
   id="path508" />
<path
   fill="#6ECAF2"
   opacity="1.000000"
   stroke="none"
   d=" M504.910400,571.073792   C510.041138,576.334900 511.561462,586.992554 508.219452,594.270203   C505.489258,600.215576 499.436157,603.549683 492.291870,603.043152   C485.107269,602.533813 479.990875,595.860840 481.214233,588.754700   C481.611664,586.446167 481.659271,584.077393 481.881256,581.573853   C472.275177,582.830383 469.766602,599.062317 476.718933,609.796326   C476.402649,610.113892 475.998627,610.085571 475.290039,610.065552   C470.526459,605.220398 468.425720,599.538025 469.019409,592.108826   C470.808990,583.818604 474.352295,577.739990 481.941467,574.907593   C487.393860,572.872742 489.486786,574.245239 489.910797,580.371399   C488.192780,581.838745 485.951477,582.683350 485.274902,584.217773   C482.690002,590.080078 487.784058,597.576843 494.175354,598.007446   C498.900146,598.325806 501.955139,596.218689 504.362854,592.288513   C508.677734,585.245300 506.531616,578.186890 504.910400,571.073792  z"
   id="path510" />

<path
   fill="#9CD8F1"
   opacity="1.000000"
   stroke="none"
   d=" M451.058472,582.988525   C451.033813,586.037415 451.009186,589.086304 450.980194,592.567505   C448.897827,600.186768 451.546814,606.804443 453.720245,613.758606   C456.334869,623.663940 462.550507,630.832031 469.350952,637.556702   C471.417908,639.600586 473.971344,641.152466 476.646545,642.970947   C485.499969,650.823303 496.143890,654.758423 506.567902,658.947327   C522.335938,665.283752 538.951843,667.231323 555.802979,666.907410   C564.887146,666.732849 573.947571,665.451721 583.033752,665.188965   C586.284180,665.094971 589.578674,666.527588 592.711304,667.910889   C589.042664,669.709473 585.515808,670.860657 582.094299,671.689026   C581.229431,670.906250 580.245483,670.023926 579.291077,670.054810   C573.158020,670.253479 567.034912,670.835938 560.902100,670.952148   C537.879944,671.388306 515.484375,668.235901 494.595520,657.975891   C475.292999,648.494934 459.400421,635.277710 450.995636,614.808472   C446.693207,604.330322 446.131958,593.584473 451.058472,582.988525  z"
   id="path514" />
<path
   fill="#9ED9F2"
   opacity="1.000000"
   stroke="none"
   d=" M468.215515,592.009766   C468.075958,584.175232 471.602448,577.972656 477.480988,573.161804   C482.719513,568.874634 489.993683,570.596680 495.147339,577.493225   C493.658844,578.361328 492.237213,579.190430 490.460876,580.042480   C489.486786,574.245239 487.393860,572.872742 481.941467,574.907593   C474.352295,577.739990 470.808990,583.818604 469.007935,591.661011   C468.936432,592.034119 468.455841,592.017090 468.215515,592.009766  z"
   id="path516" />

<path
   fill="#94DADD"
   opacity="1.000000"
   stroke="none"
   d=" M409.007843,664.993896   C409.130005,665.131165 409.244141,665.274902 409.358276,665.418640   C409.272247,665.373230 409.186218,665.327820 409.043640,665.149780   C408.987091,665.017090 408.999817,665.000427 409.007843,664.993896  z"
   id="path520" />
<path
   fill="#94DADD"
   opacity="1.000000"
   stroke="none"
   d=" M411.468872,666.455322   C411.519196,666.426636 411.418549,666.484070 411.468872,666.455322  z"
   id="path522" />
<path
   fill="#6DC9F2"
   opacity="1.000000"
   stroke="none"
   d=" M580.922913,672.997681   C573.483643,674.977295 566.044373,676.956970 558.182007,678.913208   C554.700623,677.960144 551.650818,676.263367 548.582703,676.229492   C532.775452,676.055237 517.626709,672.760864 502.997406,667.082214   C485.299255,660.212280 468.701416,651.262085 457.286438,635.575928   C445.577515,619.485779 442.376312,601.477844 448.813110,582.246887   C449.317291,580.740479 450.383240,579.422119 451.530365,577.934692   C451.603302,579.315674 451.333984,580.778442 451.061554,582.614868   C446.131958,593.584473 446.693207,604.330322 450.995636,614.808472   C459.400421,635.277710 475.292999,648.494934 494.595520,657.975891   C515.484375,668.235901 537.879944,671.388306 560.902100,670.952148   C567.034912,670.835938 573.158020,670.253479 579.291077,670.054810   C580.245483,670.023926 581.229431,670.906250 582.094299,671.689026   C581.988892,672.011780 582.002869,671.999268 581.779846,672.105591   C581.345520,672.473816 581.134216,672.735718 580.922913,672.997681  z"
   id="path524" />
<path
   fill="#9CD9F1"
   opacity="1.000000"
   stroke="none"
   d=" M430.689819,671.970154   C430.438538,672.166016 429.858521,672.273682 429.145935,672.148438   C429.462616,671.904358 429.911835,671.893127 430.689819,671.970154  z"
   id="path526" />
<path
   fill="#9CD8F1"
   opacity="1.000000"
   stroke="none"
   d=" M581.160522,672.895752   C581.134216,672.735718 581.345520,672.473816 581.785889,672.099976   C581.809265,672.256592 581.603699,672.525208 581.160522,672.895752  z"
   id="path528" />
<circle
   style="fill:none;fill-opacity:1;stroke:#000000;stroke-width:3;stroke-dasharray:none;stroke-opacity:0.986604"
   id="path1158-3"
   cx="465.5"
   cy="465"
   r="464.52802" /></svg>
